<?xml version="1.0" encoding="utf-8"?>
<!-- Generator: Adobe Illustrator 26.0.2, SVG Export Plug-In . SVG Version: 6.00 Build 0)  -->
<svg version="1.1" id="Слой_1" xmlns:serif="http://www.serif.com/"
	 xmlns="http://www.w3.org/2000/svg" xmlns:xlink="http://www.w3.org/1999/xlink" x="0px" y="0px" viewBox="0 0 566.9 566.9"
	 style="enable-background:new 0 0 566.9 566.9;" xml:space="preserve">
<style type="text/css">
	.st0{fill:url(#SVGID_1_);}
	.st1{enable-background:new    ;}
	.st2{fill:url(#SVGID_00000165919125793140806660000012639095205906881438_);}
	.st3{fill:#6000B3;}
	.st4{fill:url(#SVGID_00000120543377924467508760000007967015812250836885_);}
	.st5{fill:#9E9E9E;}
	.st6{fill:url(#SVGID_00000129169673389624995850000013104328875367135119_);}
	.st7{fill:url(#SVGID_00000018952700512617969250000001775128297199549373_);}
	.st8{fill:url(#SVGID_00000009583532283090757400000015574219693063731135_);}
	.st9{fill:url(#SVGID_00000009591339216021855560000001122897887798413200_);}
</style>
<g transform="matrix(144,0,0,144,288.317,238.51)">
</g>
<g transform="matrix(144,0,0,144,288.317,238.51)">
</g>
<g>
	<g>
		<linearGradient id="SVGID_1_" gradientUnits="userSpaceOnUse" x1="-277.7155" y1="261.5274" x2="-184.6586" y2="261.5274">
			<stop  offset="0" style="stop-color:#470085"/>
			<stop  offset="0.5805" style="stop-color:#6000B3"/>
		</linearGradient>
		<path class="st0" d="M-178.5,148.1v43.1h0v140.6h-40.1c-12.6,0-23.5-2.8-32.7-8.4c-2.9-1.7-7.8-5.1-12.6-10.6
			c-15-16.9-16.3-38.8-17.1-51.4c-0.2-3.3-0.2-6.1-0.2-7.9c-14.6,0-29.2-0.1-43.8-0.1c-0.1,2.7-0.2,5.3-0.2,8.1
			c0,22.7,4.4,42.5,13.1,59.6c8.8,17.1,21,30.3,36.8,39.7c15.8,9.4,34,14.1,54.6,14.1h86.1V148.1H-178.5z"/>
		<g transform="matrix(1.14537,0,0,1.37052,-31.6782,-11.6696)">
			<g transform="matrix(144,0,0,144,288.317,238.51)">
			</g>
			<g class="st1">
				
					<linearGradient id="SVGID_00000054265661850557486540000014017280046521922182_" gradientUnits="userSpaceOnUse" x1="-400.6247" y1="199.3382" x2="-274.9171" y2="199.3382">
					<stop  offset="0" style="stop-color:#470085"/>
					<stop  offset="0.5805" style="stop-color:#6000B3"/>
				</linearGradient>
				<path style="fill:url(#SVGID_00000054265661850557486540000014017280046521922182_);" d="M-384.1,116.6h75.2
					c18,0,33.8,3.4,47.6,10.3c13.8,6.9,24.5,16.5,32.1,29c7.6,12.5,11.5,26.9,11.5,43.5c0,16.5-3.8,31-11.5,43.5
					c-7.6,12.5-18.4,22.1-32.1,29c-13.8,6.9-29.7,10.3-47.6,10.3h-75.2V116.6z M-310.8,250.6c16.5,0,29.7-4.6,39.6-13.8
					c9.8-9.2,14.8-21.7,14.8-37.5c0-15.8-4.9-28.2-14.8-37.5c-9.9-9.2-23-13.8-39.6-13.8h-35v102.6H-310.8z"/>
			</g>
		</g>
	</g>
	<path class="st3" d="M-167.6,192h-39.6c-12.1,0-21.9-9.8-21.9-21.9v0c0-12.1,9.8-21.9,21.9-21.9h39.6c12.1,0,21.9,9.8,21.9,21.9v0
		C-145.7,182.2-155.5,192-167.6,192z"/>
	
		<radialGradient id="SVGID_00000038402390328656536840000002205658430377267605_" cx="-285.2531" cy="190.834" r="39.7953" gradientUnits="userSpaceOnUse">
		<stop  offset="0" style="stop-color:#3F0075"/>
		<stop  offset="0.5805" style="stop-color:#6000B3"/>
	</radialGradient>
	<path style="fill:url(#SVGID_00000038402390328656536840000002205658430377267605_);" d="M-266.1,192L-266.1,192
		c-12.1,0-21.9-9.8-21.9-21.9v0c0-12.1,9.8-21.9,21.9-21.9h0c12.1,0,21.9,9.8,21.9,21.9v0C-244.1,182.2-254,192-266.1,192z"/>
</g>
<g>
	<path class="st5" d="M-425.2,419.2h10.2c2.6,0,4.8,0.5,6.8,1.5c2,1,3.5,2.4,4.6,4.3c1.1,1.8,1.6,3.9,1.6,6.3c0,2.4-0.5,4.5-1.6,6.3
		c-1.1,1.8-2.6,3.3-4.6,4.3c-2,1-4.3,1.5-6.8,1.5h-10.2V419.2z M-415.2,440.4c2,0,3.7-0.4,5.2-1.1c1.5-0.8,2.6-1.8,3.4-3.2
		c0.8-1.4,1.2-3,1.2-4.8s-0.4-3.4-1.2-4.8c-0.8-1.4-2-2.4-3.4-3.2c-1.5-0.8-3.2-1.1-5.2-1.1h-6.5v18.2H-415.2z"/>
	<path class="st5" d="M-382.5,442.8c-1.2-0.6-2.2-1.5-3-2.6l2-2.4c1.3,1.9,3,2.9,5.1,2.9c1.4,0,2.4-0.4,3.1-1.2
		c0.7-0.8,1.1-2.1,1.1-3.7v-13.6h-8.8v-3h12.2v16.4c0,2.7-0.6,4.7-1.9,6c-1.3,1.3-3.2,2-5.7,2C-379.9,443.7-381.2,443.4-382.5,442.8
		z"/>
	
		<linearGradient id="SVGID_00000057137347191320991920000010798081513683938971_" gradientUnits="userSpaceOnUse" x1="-314.6035" y1="409.2026" x2="-314.6035" y2="438.2581">
		<stop  offset="0" style="stop-color:#470085"/>
		<stop  offset="0.5805" style="stop-color:#6000B3"/>
	</linearGradient>
	<path style="fill:url(#SVGID_00000057137347191320991920000010798081513683938971_);" d="M-305.6,443.8l-3.2-3.2
		c-2.1,2.1-4.8,3.1-8.1,3.1c-1.6,0-3.1-0.3-4.4-0.8c-1.3-0.5-2.3-1.3-3-2.2c-0.7-1-1.1-2-1.1-3.3c0-1.5,0.5-2.8,1.4-3.9
		s2.4-2.3,4.5-3.5c-1.1-1.1-1.8-2-2.2-2.9c-0.4-0.9-0.7-1.7-0.7-2.7c0-1.6,0.6-3,1.8-3.9c1.2-1,2.8-1.5,4.8-1.5
		c1.8,0,3.3,0.5,4.4,1.3c1.1,0.9,1.6,2.1,1.6,3.7c0,1.2-0.4,2.3-1.2,3.3c-0.8,1-2.1,2-4,3l6,5.9c0.7-1.3,1.2-2.8,1.5-4.4l2.7,0.9
		c-0.4,2.1-1.1,4-2.1,5.5l3.3,3.3L-305.6,443.8z M-310.8,438.6l-6.9-6.8c-1.7,0.9-2.8,1.8-3.5,2.6s-1,1.7-1,2.7
		c0,1.2,0.5,2.1,1.5,2.8c1,0.7,2.3,1.1,3.9,1.1C-314.3,440.9-312.4,440.2-310.8,438.6z M-318.5,422.2c-0.6,0.5-0.9,1.3-0.9,2.1
		c0,0.6,0.2,1.2,0.5,1.8c0.3,0.6,1,1.4,2,2.4c1.6-0.9,2.7-1.7,3.3-2.3c0.6-0.6,0.9-1.3,0.9-2.1c0-0.8-0.3-1.5-0.8-1.9
		c-0.6-0.5-1.4-0.7-2.4-0.7C-317,421.4-317.8,421.7-318.5,422.2z"/>
	<path class="st5" d="M-254.9,442.1c-1.9-1.1-3.5-2.5-4.6-4.4c-1.1-1.9-1.7-4-1.7-6.3s0.6-4.5,1.7-6.3c1.1-1.9,2.6-3.4,4.6-4.4
		c2-1.1,4.2-1.6,6.6-1.6c1.9,0,3.6,0.3,5.2,1c1.6,0.6,2.9,1.6,4,2.8l-2.2,2.2c-1.8-1.9-4.1-2.9-6.8-2.9c-1.8,0-3.4,0.4-4.9,1.2
		c-1.5,0.8-2.6,1.9-3.4,3.3c-0.8,1.4-1.2,3-1.2,4.8c0,1.8,0.4,3.3,1.2,4.8c0.8,1.4,2,2.5,3.4,3.3c1.5,0.8,3.1,1.2,4.9,1.2
		c2.7,0,5-1,6.8-2.9l2.2,2.2c-1.1,1.2-2.5,2.2-4,2.8c-1.6,0.6-3.3,1-5.2,1C-250.8,443.7-253,443.1-254.9,442.1z"/>
	<path class="st5" d="M-214.8,442.1c-2-1.1-3.5-2.6-4.6-4.4c-1.1-1.9-1.7-4-1.7-6.3c0-2.3,0.6-4.4,1.7-6.3s2.7-3.4,4.6-4.4
		s4.2-1.6,6.6-1.6c2.4,0,4.6,0.5,6.6,1.6s3.5,2.5,4.6,4.4c1.1,1.9,1.7,4,1.7,6.3s-0.6,4.5-1.7,6.3c-1.1,1.9-2.6,3.4-4.6,4.4
		s-4.2,1.6-6.6,1.6C-210.6,443.7-212.8,443.1-214.8,442.1z M-203.4,439.4c1.4-0.8,2.5-1.9,3.4-3.3c0.8-1.4,1.2-3,1.2-4.8
		c0-1.8-0.4-3.3-1.2-4.8c-0.8-1.4-1.9-2.5-3.4-3.3c-1.4-0.8-3-1.2-4.8-1.2c-1.8,0-3.4,0.4-4.8,1.2c-1.4,0.8-2.6,1.9-3.4,3.3
		c-0.8,1.4-1.2,3-1.2,4.8c0,1.8,0.4,3.3,1.2,4.8c0.8,1.4,1.9,2.5,3.4,3.3c1.4,0.8,3,1.2,4.8,1.2
		C-206.4,440.6-204.8,440.2-203.4,439.4z"/>
</g>
<g>
	<g>
		
			<linearGradient id="SVGID_00000150807967939169750500000003540120970039298948_" gradientUnits="userSpaceOnUse" x1="309.2137" y1="286.8006" x2="402.2705" y2="286.8006">
			<stop  offset="0" style="stop-color:#470085"/>
			<stop  offset="0.5805" style="stop-color:#6000B3"/>
		</linearGradient>
		<path style="fill:url(#SVGID_00000150807967939169750500000003540120970039298948_);" d="M408.5,173.4v43.1h0v140.6h-40.1
			c-12.6,0-23.5-2.8-32.7-8.4c-2.9-1.7-7.8-5.1-12.6-10.6c-15-16.9-16.3-38.8-17.1-51.4c-0.2-3.3-0.2-6.1-0.2-7.9
			c-14.6,0-29.2-0.1-43.8-0.1c-0.1,2.7-0.2,5.3-0.2,8.1c0,22.7,4.4,42.5,13.1,59.6c8.8,17.1,21,30.3,36.8,39.7
			c15.8,9.4,34,14.1,54.6,14.1h86.1V173.4H408.5z"/>
		<g transform="matrix(1.14537,0,0,1.37052,-31.6782,-11.6696)">
			<g transform="matrix(144,0,0,144,288.317,238.51)">
			</g>
			<g class="st1">
				
					<linearGradient id="SVGID_00000084515107131234964950000010296273951938735798_" gradientUnits="userSpaceOnUse" x1="111.8116" y1="217.7788" x2="237.5191" y2="217.7788">
					<stop  offset="0" style="stop-color:#470085"/>
					<stop  offset="0.5805" style="stop-color:#6000B3"/>
				</linearGradient>
				<path style="fill:url(#SVGID_00000084515107131234964950000010296273951938735798_);" d="M128.4,135h75.2
					c18,0,33.8,3.4,47.6,10.3c13.8,6.9,24.5,16.5,32.1,29c7.6,12.5,11.5,26.9,11.5,43.5c0,16.5-3.8,31-11.5,43.5
					c-7.6,12.5-18.4,22.1-32.1,29c-13.8,6.9-29.7,10.3-47.6,10.3h-75.2V135z M201.7,269.1c16.5,0,29.7-4.6,39.6-13.8
					c9.8-9.2,14.8-21.7,14.8-37.5c0-15.8-4.9-28.2-14.8-37.5c-9.9-9.2-23-13.8-39.6-13.8h-35v102.6H201.7z"/>
			</g>
		</g>
	</g>
	<path class="st3" d="M419.3,217.3h-39.6c-12.1,0-21.9-9.8-21.9-21.9v0c0-12.1,9.8-21.9,21.9-21.9h39.6c12.1,0,21.9,9.8,21.9,21.9v0
		C441.2,207.5,431.4,217.3,419.3,217.3z"/>
	
		<radialGradient id="SVGID_00000127752605387883957820000004924159992810527899_" cx="301.6761" cy="216.1072" r="39.7953" gradientUnits="userSpaceOnUse">
		<stop  offset="0" style="stop-color:#3F0075"/>
		<stop  offset="0.5805" style="stop-color:#6000B3"/>
	</radialGradient>
	<path style="fill:url(#SVGID_00000127752605387883957820000004924159992810527899_);" d="M320.8,217.3L320.8,217.3
		c-12.1,0-21.9-9.8-21.9-21.9v0c0-12.1,9.8-21.9,21.9-21.9h0c12.1,0,21.9,9.8,21.9,21.9v0C342.8,207.5,333,217.3,320.8,217.3z"/>
</g>
</svg>
